<svg viewBox="0 0 200 96" xmlns="http://www.w3.org/2000/svg">
  <defs>
    <linearGradient id="g" x1="0" y1="0" x2="1" y2="1">
      <stop offset="0" stop-color="#927D50"/><stop offset=".5" stop-color="#F0E4C0"/><stop offset="1" stop-color="#D8C090"/>
    </linearGradient>
  </defs>
  <g fill="url(#g)">
    <path d="M95 18 C70 6 36 4 6 16 C40 18 70 26 92 40 C94 33 94 25 95 18Z"/>
    <path d="M93 44 C72 36 44 36 22 46 C50 49 74 56 91 66 C91 58 92 51 93 44Z"/>
    <path d="M91 70 C74 66 52 68 36 78 C56 80 74 84 90 92 C90 85 90 77 91 70Z"/>
    <path d="M105 18 C130 6 164 4 194 16 C160 18 130 26 108 40 C106 33 106 25 105 18Z"/>
    <path d="M107 44 C128 36 156 36 178 46 C150 49 126 56 109 66 C109 58 108 51 107 44Z"/>
    <path d="M109 70 C126 66 148 68 164 78 C144 80 126 84 110 92 C110 85 110 77 109 70Z"/>
    <path d="M97 16 C96 40 96 66 98 94 L100 94 C99 66 99 40 99 16Z"/>
    <path d="M103 16 C104 40 104 66 102 94 L101 94 C101 66 101 40 101 16Z"/>
  </g>
</svg>
