<svg viewBox="0 0 512 280" xmlns="http://www.w3.org/2000/svg" fill="none">
  <defs>
    <linearGradient id="goldGrad" x1="0%" y1="0%" x2="100%" y2="100%">
      <stop offset="0%" style="stop-color:#D4AF37;stop-opacity:1" />
      <stop offset="50%" style="stop-color:#F0E68C;stop-opacity:1" />
      <stop offset="100%" style="stop-color:#DAA520;stop-opacity:1" />
    </linearGradient>
  </defs>
  
  <!-- Left Wing -->
  <path d="M 80 80 Q 60 100 50 140 Q 45 160 50 180" fill="none" stroke="url(#goldGrad)" stroke-width="18" stroke-linecap="round"/>
  <path d="M 100 70 Q 75 95 65 140 Q 62 160 68 180" fill="none" stroke="url(#goldGrad)" stroke-width="16" stroke-linecap="round"/>
  <path d="M 120 65 Q 95 90 88 140 Q 87 160 95 180" fill="none" stroke="url(#goldGrad)" stroke-width="14" stroke-linecap="round"/>
  <path d="M 140 68 Q 120 90 115 140 Q 115 160 122 180" fill="none" stroke="url(#goldGrad)" stroke-width="16" stroke-linecap="round"/>
  <path d="M 155 80 Q 140 100 138 140 Q 140 160 148 180" fill="none" stroke="url(#goldGrad)" stroke-width="18" stroke-linecap="round"/>
  
  <!-- Center Divider -->
  <line x1="256" y1="40" x2="256" y2="220" stroke="url(#goldGrad)" stroke-width="3"/>
  
  <!-- Right Wing (Mirror) -->
  <path d="M 432 80 Q 452 100 462 140 Q 467 160 462 180" fill="none" stroke="url(#goldGrad)" stroke-width="18" stroke-linecap="round"/>
  <path d="M 412 70 Q 437 95 447 140 Q 450 160 444 180" fill="none" stroke="url(#goldGrad)" stroke-width="16" stroke-linecap="round"/>
  <path d="M 392 65 Q 417 90 424 140 Q 425 160 417 180" fill="none" stroke="url(#goldGrad)" stroke-width="14" stroke-linecap="round"/>
  <path d="M 372 68 Q 392 90 397 140 Q 397 160 390 180" fill="none" stroke="url(#goldGrad)" stroke-width="16" stroke-linecap="round"/>
  <path d="M 357 80 Q 372 100 374 140 Q 372 160 364 180" fill="none" stroke="url(#goldGrad)" stroke-width="18" stroke-linecap="round"/>
</svg>
